<svg width="112" height="32" viewBox="0 0 112 32" fill="none" xmlns="http://www.w3.org/2000/svg">
<path fill-rule="evenodd" clip-rule="evenodd" d="M10.0266 22.9759C7.90255 22.398 7.54188 21.205 8.51277 20.5176C9.41054 19.8803 10.937 19.4045 10.937 19.4045L17.241 17.2616V19.7032L12.7043 21.2551C11.9021 21.5334 11.7793 21.9193 12.4314 22.1224C13.0835 22.3256 14.262 22.2681 15.0633 21.9935L17.239 21.2384V23.423C17.1016 23.4471 16.9466 23.4703 16.8052 23.4926C14.535 23.8449 12.2089 23.6676 10.0266 22.9759ZM23.3265 23.2301L30.4005 20.8275C31.2037 20.5492 31.3265 20.1651 30.6744 19.962C30.0223 19.7588 28.8438 19.8163 28.0425 20.0918L23.3285 21.6744V19.1521L23.6014 19.064C24.6665 18.7361 25.7644 18.5144 26.8776 18.4026C28.7931 18.2013 31.1384 18.4304 32.9788 19.0946C35.0541 19.7199 35.2881 20.641 34.7607 21.2755C34.2333 21.91 32.9408 22.3618 32.9408 22.3618L23.3285 25.654L23.3265 23.2301ZM24.1541 7.59276C27.8787 8.81633 29.1411 10.3395 29.1411 13.7718C29.1411 17.116 26.9829 18.384 24.2418 17.1178V10.8813C24.2418 10.1503 24.1015 9.47681 23.384 9.28571C22.8343 9.11688 22.4931 9.60575 22.4931 10.3367V25.9443L18.0949 24.6085V6C19.9655 6.3321 22.69 7.11317 24.1541 7.58905V7.59276ZM33.6095 24.6753C33.6127 24.6998 33.6096 24.7247 33.6004 24.7478C33.5912 24.771 33.5763 24.7916 33.5568 24.808C33.5087 24.8363 33.4525 24.8499 33.396 24.8469H33.0578V24.5139H33.4165C33.4566 24.5124 33.4965 24.5194 33.5334 24.5343C33.5594 24.548 33.5805 24.5687 33.5941 24.5938C33.6076 24.6189 33.613 24.6473 33.6095 24.6753ZM33.8522 25.4341C33.8426 25.4285 33.8343 25.421 33.8281 25.412C33.8219 25.403 33.8178 25.3928 33.8161 25.3822C33.809 25.3517 33.8057 25.3206 33.8064 25.2894L33.7996 25.1382C33.8023 25.083 33.7874 25.0283 33.7567 24.9814C33.7361 24.9583 33.7114 24.9388 33.6836 24.9239C33.7201 24.9013 33.7516 24.872 33.7762 24.8377C33.8096 24.7832 33.8262 24.7208 33.8239 24.6577C33.8287 24.5977 33.814 24.5377 33.7817 24.4859C33.7495 24.4341 33.7013 24.3931 33.6436 24.3683C33.5704 24.3395 33.4917 24.3259 33.4126 24.3284H32.8462V25.5065H33.0578V25.0232H33.3911C33.4352 25.0208 33.4794 25.0272 33.5208 25.0417C33.5436 25.0542 33.5623 25.0726 33.5746 25.0948C33.5868 25.1169 33.5922 25.142 33.59 25.167L33.5997 25.3525C33.6002 25.3836 33.6031 25.4146 33.6085 25.4453C33.6115 25.4607 33.6167 25.4757 33.6241 25.4898L33.6319 25.5037H33.8678V25.4351L33.8522 25.4341ZM32.4008 24.9425C32.4 24.7096 32.496 24.4858 32.6678 24.32C32.7517 24.2382 32.8519 24.1731 32.9625 24.1287C33.0732 24.0843 33.1921 24.0614 33.3122 24.0614C33.4323 24.0614 33.5512 24.0843 33.6618 24.1287C33.7725 24.1731 33.8727 24.2382 33.9565 24.32C34.0836 24.4431 34.17 24.599 34.205 24.7683C34.2401 24.9376 34.2222 25.113 34.1537 25.2727C34.0851 25.4325 33.9689 25.5697 33.8193 25.6673C33.6698 25.7648 33.4935 25.8186 33.3122 25.8219C33.1921 25.822 33.0733 25.7992 32.9626 25.7549C32.852 25.7106 32.7517 25.6457 32.6678 25.564C32.4962 25.3984 32.4002 25.1751 32.4008 24.9425ZM33.3122 26C33.4565 26.0002 33.5994 25.9728 33.7323 25.9194C33.8653 25.866 33.9856 25.7877 34.0861 25.6892C34.2917 25.4895 34.4068 25.2211 34.4068 24.9416C34.4068 24.662 34.2917 24.3936 34.0861 24.1939C33.9854 24.0957 33.865 24.0177 33.7321 23.9645C33.5992 23.9112 33.4564 23.8839 33.3122 23.884C33.0942 23.888 32.8823 23.9526 32.7025 24.0699C32.5228 24.1872 32.3831 24.3521 32.3007 24.5442C32.2184 24.7362 32.197 24.9471 32.2392 25.1506C32.2814 25.3541 32.3853 25.5413 32.5382 25.6892C32.6388 25.7877 32.7591 25.866 32.892 25.9194C33.025 25.9728 33.1679 26.0002 33.3122 26Z" fill="black"/>
<path d="M101.846 22.0679H101.661V20.8492H101.236V20.6787H102.273V20.8492H101.848L101.846 22.0679ZM103.132 21.7454L103.529 20.6787H103.818V22.0688H103.625V20.9067L103.186 22.0679H103.068L102.63 20.9067V22.0679H102.447V20.6777H102.737L103.132 21.7454ZM99.3754 10.0688H81.6034V14.6916C81.6034 14.6916 81.5493 16.4766 83.85 16.4766H94.7131C95.1393 16.4733 95.5614 16.5557 95.9523 16.7185C96.5589 16.978 97.2408 17.5063 97.2408 18.5721C97.2408 19.5285 96.7579 20.0716 96.2798 20.3756C95.8839 20.621 95.4219 20.7498 94.9507 20.7463H81.6034V22.0438H96.4865C96.4865 22.0438 99.867 21.9122 99.867 18.5786C99.867 16.8835 98.8354 16.0438 97.9072 15.6323C97.3075 15.368 96.6548 15.2323 95.9948 15.2347H85.2283C85.0489 15.237 84.8717 15.1966 84.7125 15.117C84.4827 14.9975 84.2296 14.7602 84.2296 14.2931V11.3487H99.3754V10.0688ZM59.2349 20.7417V22.0392H66.7783C67.6799 22.0483 68.5546 21.7446 69.2413 21.1838C69.5954 20.8954 69.8779 20.5346 70.0681 20.128C70.2583 19.7213 70.3513 19.279 70.3404 18.8334V13.3182C70.3365 13.0165 70.4041 12.718 70.5379 12.4451C70.6718 12.1722 70.8684 11.932 71.1131 11.7426C71.4604 11.4818 71.8901 11.3428 72.3311 11.3487H78.9077V10.0688H71.0754C71.0754 10.0688 67.6949 10.1207 67.6949 13.5517V18.7018C67.7009 19.1236 67.5823 19.5384 67.353 19.8983C67.1871 20.1645 66.9501 20.3832 66.6665 20.532C66.3829 20.6807 66.063 20.7541 65.74 20.7445L59.2349 20.7417ZM41.8184 10.0688V11.3487H55.2632C55.6372 11.3457 56.0073 11.4219 56.3469 11.5721C56.8801 11.8121 57.4789 12.3061 57.4789 13.308C57.4789 14.2811 56.8801 14.7676 56.3469 15.0086C56.0017 15.1607 55.6257 15.2379 55.2458 15.2347H45.2742C44.684 15.2295 44.1006 15.3564 43.5704 15.6055C42.7408 16.0049 41.8184 16.9456 41.8184 18.497V22.0188H44.4059V18.5128C44.4042 18.2847 44.4471 18.0584 44.5324 17.8455C44.7459 17.32 45.2858 16.4766 46.5482 16.4766H56.6029C56.941 16.4784 57.2778 16.435 57.6035 16.3478C58.5269 16.0957 60.0665 15.3673 60.0665 13.308C60.0665 10.1078 56.7468 10.0688 56.7468 10.0688H41.8184Z" fill="black"/>
</svg>
